<svg width="1068" height="1068" viewBox="0 0 1068 1068" fill="none" xmlns="http://www.w3.org/2000/svg">
<g clip-path="url(#clip0_21673_200)">
<path fill-rule="evenodd" clip-rule="evenodd" d="M0 1068H1068V0H0V1068Z" fill="#202121"/>
<path fill-rule="evenodd" clip-rule="evenodd" d="M503.375 209.061L399.285 357.994L333.389 312.003L437.479 163.07L503.375 209.061Z" fill="white"/>
<path fill-rule="evenodd" clip-rule="evenodd" d="M632.883 209.061L528.793 357.994L462.898 312.003L566.988 163.07L632.883 209.061Z" fill="white"/>
<path fill-rule="evenodd" clip-rule="evenodd" d="M762.392 209.061L658.302 357.994L592.406 312.003L696.496 163.07L762.392 209.061Z" fill="white"/>
<path d="M250.192 570.182H202.44V656.957H157.25V435.641H265.799C281.311 435.934 293.246 437.843 301.603 441.341C309.96 444.852 317.036 450.005 322.843 456.8C327.649 462.407 331.454 468.615 334.257 475.424C337.061 482.232 338.463 489.988 338.463 498.693C338.463 509.199 335.806 519.545 330.506 529.705C325.193 539.864 316.449 547.046 304.233 551.252C314.446 555.363 321.668 561.184 325.927 568.74C330.186 576.296 332.308 587.831 332.308 603.343V618.215C332.308 628.321 332.709 635.183 333.51 638.788C334.711 644.501 337.515 648.693 341.92 651.403V656.957H291.017C289.615 652.057 288.614 648.106 288.013 645.089C286.812 638.881 286.157 632.526 286.064 626.025L285.757 605.453C285.557 591.342 282.98 581.93 278.027 577.217C273.074 572.518 263.783 570.169 250.179 570.169L250.192 570.182ZM278.268 529.945C287.479 525.74 292.085 517.436 292.085 505.021C292.085 491.617 287.626 482.606 278.721 478C273.715 475.397 266.212 474.089 256.2 474.089H202.453V533.55H254.852C265.265 533.55 273.074 532.348 278.281 529.945H278.268Z" fill="white"/>
<path d="M520.009 560.271H412.502V617.182H535.015V656.965H367.299V435.648H529.608V474.831H412.502V521.823H520.009V560.257V560.271Z" fill="white"/>
<path d="M737.721 656.965H691.476L601.097 499.768V656.965H558.003V435.648H606.504L694.64 590.148V435.648H737.734V656.965H737.721Z" fill="white"/>
<path d="M938.545 435.648V474.831H872.329V656.951H825.791V474.831H759.281V435.648H938.545Z" fill="white"/>
<path d="M200.344 901.262H157.25V679.945H224.507L264.744 853.963L304.687 679.945H371.197V901.262H328.103V751.568C328.103 747.269 328.156 741.235 328.25 733.479C328.343 725.722 328.397 719.742 328.397 715.536L286.504 901.262H241.608L200.023 715.536C200.023 719.742 200.077 725.722 200.17 733.479C200.263 741.235 200.317 747.269 200.317 751.568V901.262H200.344Z" fill="white"/>
<path d="M537.564 855.765H456.036L440.723 901.262H392.383L471.362 679.945H523.614L601.991 901.262H551.849L537.591 855.765H537.564ZM524.655 817.637L497.034 730.555L468.505 817.637H524.655Z" fill="white"/>
<path d="M802.882 901.262H756.638L666.259 744.065V901.262H623.165V679.945H671.665L759.802 834.445V679.945H802.896V901.262H802.882Z" fill="white"/>
</g>
<defs>
<clipPath id="clip0_21673_200">
<rect width="1068" height="1068" fill="white"/>
</clipPath>
</defs>
</svg>
